<svg width="72" fill="#F65700" viewBox="0 0 77 84" xmlns="http://www.w3.org/2000/svg" class="logo-container" style="--step-length:15ms;"><g class="logo"><g class="n"><path d="M47.5908 3.26751C47.4513 2.49924 47.2769 1.74226 47.0677 0.996582H27.7585C27.1424 0.996582 26.5495 1.23384 26.1078 1.65187C26.9564 2.14899 27.7818 2.68001 28.5723 3.26751H47.5908Z"></path> <path d="M31.8389 6.04639C32.5712 6.76947 33.2571 7.53774 33.8849 8.31731H47.9744C47.9744 8.11394 47.986 7.89928 47.986 7.69591C47.986 7.14231 47.9627 6.6 47.9279 6.04639H47.4745H31.8389Z"></path> <path d="M47.3351 13.3676C47.5094 12.6106 47.6489 11.865 47.7536 11.0967H44.8241H35.8612L35.8728 11.1193C36.7331 12.5089 38.2908 13.3676 39.9648 13.3676H44.0801H47.3351Z"></path></g> <g class="ne"><path d="M63.3426 16.8813C63.8076 16.2486 64.2261 15.5934 64.633 14.9155L52.078 2.72478L50.9736 1.65145C50.5435 1.23342 49.9506 0.984863 49.3229 0.984863C49.567 1.92261 49.753 2.87165 49.8925 3.82069L63.3426 16.8813Z"></path> <path d="M60.4132 20.2931C60.8085 19.909 61.1921 19.5023 61.5641 19.0842L61.0177 18.5532L60.3551 17.9092L50.1948 8.03467C50.1832 9.0515 50.1134 10.057 49.9972 11.0513L59.9598 20.7338C60.0993 20.5869 60.2621 20.44 60.4132 20.2931Z"></path> <path d="M49.4856 13.7971C49.0206 15.7856 49.6368 17.8758 51.1248 19.3219L53.5195 21.6268L55.8213 23.8525C56.4955 23.4458 57.1465 23.0051 57.7743 22.5306L50.2994 14.6332L49.4973 13.752C49.4973 13.7745 49.4856 13.7858 49.4856 13.7971Z"></path></g> <g class="e"><path d="M66.2256 16.4858C65.7141 17.3106 65.1677 18.1128 64.5632 18.881V37.3422H64.5749C65.3654 37.2066 66.1442 37.0372 66.9115 36.8338V18.0902C66.9115 17.4914 66.6674 16.9152 66.2256 16.4858Z"></path> <path d="M61.715 37.6811V36.9128V35.6249V22.0332C60.971 22.745 60.1805 23.4116 59.3784 24.0217V37.715C59.5993 37.7263 59.8085 37.7263 60.0178 37.7263C60.5874 37.7376 61.157 37.715 61.715 37.6811Z"></path> <path d="M54.1822 33.9415V37.1049C54.961 37.2744 55.7283 37.41 56.5188 37.5117V34.8566V33.5121V25.9424C56.5072 25.9537 56.5072 25.9537 56.4955 25.9537C55.054 26.801 54.1589 28.315 54.1705 29.9532L54.1822 33.7381V33.7833V33.9415Z"></path></g> <g class="se"><path d="M50.5668 52.6626C51.2178 53.1145 51.892 53.5213 52.5895 53.9167L66.2256 40.664C66.6674 40.2346 66.9115 39.6471 66.9115 39.0483C65.9466 39.2856 64.9701 39.4664 63.9936 39.6019L50.5668 52.6626Z"></path> <path d="M47.0559 49.8043C47.4512 50.1884 47.8697 50.5612 48.2998 50.9228L48.8578 50.3805L49.9505 49.3185L59.669 39.8732C58.6228 39.8619 57.5882 39.7941 56.5652 39.6812L46.6025 49.3636C46.7537 49.5105 46.9048 49.6574 47.0559 49.8043Z"></path> <path d="M45.6959 43.1041L43.3942 45.3411C43.7778 45.9286 44.1963 46.5161 44.6264 47.081L53.1591 39.0593C53.1475 39.0593 53.1475 39.048 53.1359 39.048C51.5084 38.6526 49.7879 39.1045 48.6138 40.2569L45.7889 43.0137L45.6959 43.1041Z"></path></g> <g class="s"><path d="M29.5139 53.8604C29.6534 54.6399 29.8278 55.3856 30.037 56.1426H49.3229C49.939 56.1426 50.5435 55.9053 50.9737 55.476C50.125 54.9789 49.2997 54.4479 48.5092 53.8604H29.5139Z"></path> <path d="M31.4435 51.081H45.2657C44.5333 50.3579 43.8474 49.5896 43.2197 48.8101H29.1302C29.1185 49.0247 29.1185 49.2281 29.1185 49.4315C29.1185 49.9851 29.1418 50.5274 29.1767 51.081H29.9672H31.4435Z"></path> <path d="M37.1631 43.7598H33.1292H33.0246H29.7696C29.5952 44.5167 29.4441 45.2737 29.3395 46.0307H32.0714H33.6175H41.2319C41.2202 46.0194 41.2202 46.0194 41.2202 46.0081C40.36 44.6071 38.8371 43.7598 37.1631 43.7598Z"></path></g> <g class="sw"><path d="M13.7503 40.2461C13.2853 40.8788 12.8668 41.5341 12.46 42.212L26.0961 55.4647C26.5262 55.8827 27.1307 56.1313 27.7468 56.1313C27.5027 55.1935 27.3167 54.2558 27.1772 53.3067L13.7503 40.2461Z"></path> <path d="M16.6915 36.8336C16.2963 37.2178 15.9126 37.6245 15.5406 38.0425L16.0986 38.5848L17.389 39.8389L26.9215 49.1034C26.9331 48.0866 27.0029 47.081 27.1191 46.0868L17.1565 36.4043C16.9938 36.5399 16.8426 36.6867 16.6915 36.8336Z"></path> <path d="M23.6666 35.5911L23.5852 35.512L21.2718 33.2637C20.5976 33.6704 19.9466 34.111 19.3304 34.5856L21.2602 36.461L22.5971 37.7603L27.7353 42.7541C27.7353 42.7428 27.7353 42.7428 27.7469 42.7428C28.1654 41.1611 27.7004 39.4776 26.5031 38.3365L23.6666 35.5911Z"></path></g> <g class="w"><path d="M12.5181 19.7852C11.7276 19.9207 10.9488 20.0902 10.1815 20.2936V39.0485C10.1815 39.6473 10.4256 40.2235 10.8558 40.6528C11.3673 39.828 11.9136 39.0259 12.5181 38.2576V19.7852Z"></path> <path d="M15.3779 19.4574V20.2144V21.0166V35.0941C16.1219 34.3823 16.9124 33.7157 17.7146 33.1056V19.4009C17.4937 19.3896 17.2844 19.3896 17.0752 19.3896C16.5172 19.3896 15.9476 19.4235 15.3779 19.4574Z"></path> <path d="M22.9108 22.3043V20.022L20.5742 19.604V21.3213V22.2591V22.9257V23.129V31.1733C20.5858 31.162 20.5858 31.162 20.5975 31.162C22.039 30.3146 22.9225 28.812 22.9225 27.185L22.9108 23.2759V23.1968V22.3043Z"></path></g> <g class="nw"><path d="M24.1664 6.75813L24.9104 6.03505L26.5379 4.45331C25.8869 4.00139 25.2126 3.59465 24.5151 3.19922L24.4686 3.24441L10.8674 16.4632C10.4372 16.8813 10.1931 17.4462 10.1931 18.0337V18.045C11.158 17.8077 12.1229 17.6269 13.111 17.4914L24.1664 6.75813Z"></path> <path d="M30.0371 7.3231C29.6419 6.93897 29.2234 6.56613 28.7932 6.20459L28.2352 6.7469L26.6077 8.32864L17.4124 17.2542C18.4586 17.2655 19.4932 17.3332 20.5162 17.4462L30.4789 7.76373C30.3394 7.61686 30.1882 7.46998 30.0371 7.3231Z"></path> <path d="M33.7222 11.8082C33.3037 11.153 32.8503 10.5203 32.3621 9.91016L30.0487 12.1585L23.9456 18.0674C23.9572 18.0674 23.9572 18.0787 23.9688 18.0787C25.5963 18.4741 27.3284 18.0335 28.5026 16.8698L30.2812 15.1412L33.7222 11.8082Z"></path></g></g> <g class="tages"><path d="M6.38018 83.0775V69.3163H0.997803V66.6387H14.7502V69.3163H9.35618V83.0888H6.38018V83.0775Z" fill="#2d2d2d" class="t"></path> <path d="M13.0413 83.0772L20.4813 66.5142H23.2364L30.6764 83.0772H27.5376L25.8288 79.1003H17.8308L16.087 83.0772H13.0413ZM18.9003 76.5469H24.7244L21.8065 69.9714L18.9003 76.5469Z" fill="#2d2d2d" class="a"></path> <path d="M39.3371 83.3597C36.7214 83.3597 34.6173 82.5575 32.9898 80.9532C31.3623 79.3488 30.5602 77.3377 30.5602 74.9087V74.8635C30.5602 72.5134 31.3856 70.5024 33.0363 68.8528C34.6871 67.192 36.7679 66.356 39.2789 66.356C40.6739 66.356 41.8829 66.5367 42.8943 66.9096C43.8941 67.2824 44.8589 67.836 45.7773 68.593L43.8941 70.7735C43.1849 70.1973 42.4758 69.7567 41.7434 69.4629C41.0227 69.1805 40.1508 69.0336 39.1511 69.0336C37.6166 69.0336 36.3146 69.5985 35.2683 70.7396C34.1988 71.8695 33.6641 73.2365 33.6641 74.807V74.8522C33.6641 76.5582 34.1988 77.9592 35.2683 79.0777C36.3378 80.1736 37.7212 80.7272 39.4184 80.7272C40.9878 80.7272 42.3596 80.3092 43.5104 79.4844V76.4339H39.1976V73.8918H46.3934V80.8063C44.3126 82.5123 41.9643 83.3597 39.3371 83.3597Z" fill="#2d2d2d" class="g"></path> <path d="M49.0439 83.0775V66.6387H61.5873V69.2147H52.0083V73.4854H60.4946V76.0839H52.0083V80.4789H61.6919V83.0549H49.0439V83.0775Z" fill="#2d2d2d" class="e"></path> <path d="M69.9573 83.3149C67.2486 83.3149 64.8888 82.4336 62.9009 80.6824L64.6911 78.6148C66.3768 80.0497 68.1554 80.7502 70.0386 80.7502C70.957 80.7502 71.6894 80.5581 72.2241 80.174C72.7705 79.7899 73.0379 79.2927 73.0379 78.6826V78.6374C73.0379 78.0273 72.7705 77.5415 72.2474 77.1687C71.7243 76.7958 70.7129 76.4569 69.2133 76.118C67.2603 75.6773 65.8304 75.1011 64.9353 74.4006C64.0285 73.7002 63.5751 72.6381 63.5751 71.2033V71.1468C63.5751 69.7345 64.1215 68.5934 65.2026 67.7009C66.2838 66.8083 67.6671 66.3677 69.3528 66.3677C71.6545 66.3677 73.7121 67.0569 75.5024 68.4352L73.8981 70.6497C72.3288 69.5311 70.7826 68.9549 69.3063 68.9549C68.4576 68.9549 67.7834 69.1357 67.2835 69.5086C66.7836 69.8814 66.5511 70.3446 66.5511 70.8982V70.9434C66.5511 71.5874 66.8185 72.0732 67.3649 72.4348C67.9113 72.7963 68.9808 73.1466 70.585 73.5307C72.4683 74.0052 73.8516 74.5927 74.7119 75.3045C75.5721 76.0163 76.0023 77.0331 76.0023 78.355V78.4002C76.0023 79.9141 75.4443 81.1117 74.3399 81.993C73.2239 82.8742 71.7591 83.3149 69.9573 83.3149Z" fill="#2d2d2d" class="s"></path></g></svg>
